<svg xmlns="http://www.w3.org/2000/svg" width="278.391" height="50" viewBox="0 0 278.391 50"><defs><style>.a{fill:#0072ff;fill-rule:evenodd;}</style></defs><path class="a" d="M159.88,15.08a8.352,8.352,0,0,1-4.108,1.024,5.667,5.667,0,0,1-4.251-1.662,6.025,6.025,0,0,1-1.622-4.4,6.152,6.152,0,0,1,6.367-6.382,7.877,7.877,0,0,1,3.363.641V5.866a6.548,6.548,0,0,0-3.527-.924,4.461,4.461,0,0,0-3.381,1.393,5.04,5.04,0,0,0-1.318,3.61,5.036,5.036,0,0,0,1.225,3.588,4.326,4.326,0,0,0,3.323,1.307,5.242,5.242,0,0,0,2.489-.562V10.9h-2.689V9.626h4.125v5.458ZM41.108,14.586a18.455,18.455,0,0,0-2.353-1.3A20.783,20.783,0,0,0,35.837,12.2a25.46,25.46,0,0,0-3.366-.756,22.564,22.564,0,0,0-3.678-.283,19.846,19.846,0,0,0-7.352,1.289,15.483,15.483,0,0,0-9.118,9.322A21.126,21.126,0,0,0,11.1,29.122a15.515,15.515,0,0,0,.827,5.225,10.444,10.444,0,0,0,2.328,3.871,10.066,10.066,0,0,0,3.678,2.4,13.1,13.1,0,0,0,4.792.831,16.412,16.412,0,0,0,2.919-.208,20.042,20.042,0,0,0,2.106-.491l1.995-9.325H20.248l1.794-8.265H41.506L38.118,46.448c-.924.448-1.952.885-3.065,1.3s-2.317.791-3.621,1.139a35.031,35.031,0,0,1-4.211.809,36.855,36.855,0,0,1-4.87.3,32.527,32.527,0,0,1-10.092-1.475A18.351,18.351,0,0,1,5.583,44.37,17.973,17.973,0,0,1,1.44,37.91,23.058,23.058,0,0,1,0,29.6a30.551,30.551,0,0,1,.813-7A26.419,26.419,0,0,1,3.255,16.19,24.244,24.244,0,0,1,7.3,10.657a24,24,0,0,1,5.683-4.319A28.907,28.907,0,0,1,20.3,3.52,37.239,37.239,0,0,1,29.283,2.5a37.125,37.125,0,0,1,4.233.24c1.339.165,2.586.372,3.767.634s2.263.537,3.245.842,1.884.612,2.664.92l-2.084,9.443ZM76.261,11.7H59.9L57.685,22.053H72.93L71.068,30.5H55.891L53.606,40.807H71.068L70.341,49.2H41.169L51.121,3.28H78.087L76.261,11.7Zm31.206,0H91.108L88.891,22.053h15.245L102.274,30.5H87.1L84.816,40.807h17.462l-.727,8.394H72.382L82.334,3.28H109.3L107.474,11.7Zm36.821,1.955a10.949,10.949,0,0,1-.723,4A10.092,10.092,0,0,1,141.438,21a12.529,12.529,0,0,1-3.51,2.546,17.778,17.778,0,0,1-4.867,1.576v.133a12.235,12.235,0,0,1,3.889,1.171,9.4,9.4,0,0,1,2.786,2.088,8.333,8.333,0,0,1,1.683,2.822,10.043,10.043,0,0,1,.555,3.366,13.43,13.43,0,0,1-1.236,5.751,12.821,12.821,0,0,1-3.724,4.591,18.4,18.4,0,0,1-6.2,3.058,30.469,30.469,0,0,1-8.656,1.107H103.588l9.948-45.921h16.581a23.4,23.4,0,0,1,6.518.788,12.116,12.116,0,0,1,4.39,2.174,8.324,8.324,0,0,1,2.485,3.3,10.87,10.87,0,0,1,.781,4.111Zm-11.1,2.023a5.38,5.38,0,0,0-.347-2.013,3.508,3.508,0,0,0-1.092-1.486,5.312,5.312,0,0,0-1.959-.938,10.878,10.878,0,0,0-2.944-.337h-4.337l-2.417,10.887h4.956a12.476,12.476,0,0,0,3.4-.426,7.908,7.908,0,0,0,2.564-1.235,5.452,5.452,0,0,0,1.615-1.934,5.7,5.7,0,0,0,.555-2.514Zm-2.385,19.084a4.812,4.812,0,0,0-1.694-3.846,7.656,7.656,0,0,0-5.071-1.443h-5.551l-2.675,12.111H121.7a14.028,14.028,0,0,0,4.147-.537,7.751,7.751,0,0,0,2.818-1.454,5.748,5.748,0,0,0,1.615-2.163,6.755,6.755,0,0,0,.526-2.668ZM171.533,15.9h-1.712l-2.056-3.377a7.04,7.04,0,0,0-.548-.8,3.063,3.063,0,0,0-.544-.537,1.94,1.94,0,0,0-.6-.308,2.534,2.534,0,0,0-.727-.1h-1.178V15.9h-1.436V3.864H166.4a5.406,5.406,0,0,1,1.486.2,3.407,3.407,0,0,1,1.182.6,2.767,2.767,0,0,1,.784,1,3.259,3.259,0,0,1,.283,1.407,3.336,3.336,0,0,1-.193,1.157,2.894,2.894,0,0,1-.548.931,3.22,3.22,0,0,1-.856.7,4.47,4.47,0,0,1-1.128.448v.032a2.851,2.851,0,0,1,.541.3,3.3,3.3,0,0,1,.43.412,4.833,4.833,0,0,1,.408.534c.132.2.283.426.448.691l2.306,3.621ZM164.171,5.139V9.508h1.952a2.977,2.977,0,0,0,1-.161,2.31,2.31,0,0,0,.791-.458,2.05,2.05,0,0,0,.523-.731,2.394,2.394,0,0,0,.186-.97,1.857,1.857,0,0,0-.637-1.508,2.771,2.771,0,0,0-1.844-.541h-1.97Zm18.024,5.895c0,3.373-1.554,5.071-4.663,5.071q-4.464,0-4.469-4.878V3.864H174.5v7.27q0,3.7,3.184,3.7,3.073,0,3.073-3.578v-7.4h1.436v7.169Zm4.5.319V15.9H185.26V3.864h3.37a4.524,4.524,0,0,1,3.055.938,3.325,3.325,0,0,1,1.081,2.654,3.613,3.613,0,0,1-1.2,2.8,4.656,4.656,0,0,1-3.245,1.092H186.7Zm0-6.213v4.938H188.2a3.408,3.408,0,0,0,2.27-.666,2.342,2.342,0,0,0,.784-1.887q0-2.385-2.876-2.385ZM200.022,16.1a5.429,5.429,0,0,1-4.179-1.687,6.194,6.194,0,0,1-1.572-4.39,6.545,6.545,0,0,1,1.6-4.634,5.661,5.661,0,0,1,4.358-1.73,5.314,5.314,0,0,1,4.093,1.68,6.222,6.222,0,0,1,1.554,4.394,6.582,6.582,0,0,1-1.59,4.659,5.547,5.547,0,0,1-4.262,1.712Zm.1-11.166a3.989,3.989,0,0,0-3.141,1.368A5.25,5.25,0,0,0,195.778,9.9a5.28,5.28,0,0,0,1.178,3.585,3.881,3.881,0,0,0,3.065,1.357,4.077,4.077,0,0,0,3.184-1.293,5.214,5.214,0,0,0,1.164-3.621,5.451,5.451,0,0,0-1.128-3.685,3.913,3.913,0,0,0-3.116-1.3ZM219.6,15.9h-6.5V3.864h6.231V5.139h-4.8V9.146h4.433V10.41h-4.433v4.215H219.6V15.9Zm1.787-.487V13.755a3.314,3.314,0,0,0,.7.455,5.393,5.393,0,0,0,.856.34,7.492,7.492,0,0,0,.9.215,5.188,5.188,0,0,0,.838.075,3.338,3.338,0,0,0,1.984-.487,1.624,1.624,0,0,0,.652-1.386,1.593,1.593,0,0,0-.218-.849,2.473,2.473,0,0,0-.6-.659,5.775,5.775,0,0,0-.91-.573c-.355-.183-.731-.372-1.135-.573-.426-.211-.827-.43-1.2-.648a5.276,5.276,0,0,1-.967-.723,3.046,3.046,0,0,1-.645-.892,2.712,2.712,0,0,1-.236-1.171,2.691,2.691,0,0,1,.369-1.432,3.152,3.152,0,0,1,.967-1,4.4,4.4,0,0,1,1.368-.587,6.339,6.339,0,0,1,1.558-.2,6.07,6.07,0,0,1,2.646.43V5.676a4.874,4.874,0,0,0-2.79-.738,5.005,5.005,0,0,0-.945.093,2.885,2.885,0,0,0-.838.315,1.848,1.848,0,0,0-.6.566,1.463,1.463,0,0,0-.229.842,1.739,1.739,0,0,0,.175.8,2,2,0,0,0,.516.612,5.178,5.178,0,0,0,.834.537c.329.175.705.365,1.135.569s.856.437,1.25.673a5.594,5.594,0,0,1,1.035.781,3.461,3.461,0,0,1,.709.949,2.6,2.6,0,0,1,.261,1.193,2.973,2.973,0,0,1-.355,1.508,2.86,2.86,0,0,1-.96,1,4.177,4.177,0,0,1-1.389.559,7.99,7.99,0,0,1-1.662.172,6.572,6.572,0,0,1-.72-.047,8.8,8.8,0,0,1-.874-.136,7.217,7.217,0,0,1-.842-.218,2.634,2.634,0,0,1-.641-.29Zm11.327-4.065V15.9h-1.436V3.864h3.37A4.531,4.531,0,0,1,237.7,4.8a3.334,3.334,0,0,1,1.078,2.654,3.613,3.613,0,0,1-1.2,2.8,4.656,4.656,0,0,1-3.245,1.092Zm0-6.213v4.938h1.508a3.408,3.408,0,0,0,2.27-.666,2.339,2.339,0,0,0,.781-1.887q0-2.385-2.872-2.385ZM242.526,15.9H241.09V3.864h1.436ZM243.84,0,241.6,2.754H240.51L242.419,0h1.418Zm10.711,15.9H252.84l-2.056-3.377a7.549,7.549,0,0,0-.544-.8,3.062,3.062,0,0,0-.544-.537,1.94,1.94,0,0,0-.6-.308,2.534,2.534,0,0,0-.727-.1h-1.178V15.9h-1.44V3.864h3.663a5.4,5.4,0,0,1,1.483.2,3.376,3.376,0,0,1,1.182.6,2.806,2.806,0,0,1,.784,1,3.258,3.258,0,0,1,.283,1.407,3.336,3.336,0,0,1-.193,1.157,2.959,2.959,0,0,1-.548.931,3.219,3.219,0,0,1-.856.7,4.47,4.47,0,0,1-1.128.448v.032a2.93,2.93,0,0,1,.537.3,3.086,3.086,0,0,1,.43.412,4.84,4.84,0,0,1,.412.534c.133.2.283.426.448.691l2.306,3.621ZM247.192,5.139V9.508h1.952a2.947,2.947,0,0,0,1-.161,2.31,2.31,0,0,0,.791-.458,2.05,2.05,0,0,0,.523-.731,2.394,2.394,0,0,0,.186-.97A1.868,1.868,0,0,0,251,5.68a2.765,2.765,0,0,0-1.844-.541h-1.97ZM257.678,15.9h-1.436V3.864h1.436ZM268.164,5.139h-3.545V15.9h-1.436V5.139h-3.535V3.864h8.516ZM278.391,15.9H276.8l-1.3-3.377h-5.207L269.066,15.9h-1.6l4.706-12.04h1.49l4.724,12.04Zm-3.366-4.641L273.1,6.135a4.993,4.993,0,0,1-.186-.806h-.036a4.409,4.409,0,0,1-.2.806l-1.912,5.128ZM156.475,32.925h-6.5V20.885H156.2V22.16h-4.8v4.007h4.433v1.268h-4.433V31.65h5.064v1.275Zm11.342-4.87q0,5.066-4.666,5.071-4.464,0-4.469-4.878V20.885h1.44v7.27q0,3.7,3.184,3.7,3.073,0,3.073-3.574v-7.4h1.44v7.169Zm11.861,4.87h-1.712l-2.056-3.377a7.373,7.373,0,0,0-.548-.8,3.1,3.1,0,0,0-.544-.541,1.855,1.855,0,0,0-.6-.3,2.508,2.508,0,0,0-.723-.1h-1.182v5.121h-1.436V20.885h3.664a5.265,5.265,0,0,1,1.483.2,3.346,3.346,0,0,1,1.182.6,2.8,2.8,0,0,1,.784,1,3.259,3.259,0,0,1,.283,1.407,3.3,3.3,0,0,1-.193,1.153,2.91,2.91,0,0,1-.548.935,3.29,3.29,0,0,1-.856.7,4.475,4.475,0,0,1-1.128.451v.032a2.5,2.5,0,0,1,.967.72,4.517,4.517,0,0,1,.408.534c.132.2.283.426.448.691l2.306,3.621ZM172.314,22.16v4.369h1.952a3.054,3.054,0,0,0,1-.161,2.223,2.223,0,0,0,.791-.458,2.05,2.05,0,0,0,.523-.731,2.4,2.4,0,0,0,.186-.967,1.868,1.868,0,0,0-.637-1.508,2.761,2.761,0,0,0-1.841-.541h-1.97ZM182.8,32.925h-1.436V20.885H182.8Zm32.359-15.9-2.238,2.754h-1.089l1.909-2.754h1.418ZM187.466,28.373v4.552H186.03V20.885h3.37a4.513,4.513,0,0,1,3.055.942,3.315,3.315,0,0,1,1.082,2.654,3.613,3.613,0,0,1-1.2,2.8,4.65,4.65,0,0,1-3.245,1.092H187.47Zm0-6.213V27.1h1.508a3.415,3.415,0,0,0,2.27-.666,2.342,2.342,0,0,0,.784-1.887c0-1.594-.96-2.385-2.876-2.385Zm14.883,10.765h-6.5V20.885h6.231V22.16h-4.8v4.007h4.433v1.268h-4.433V31.65h5.064v1.275Zm2.364,0V20.885H208.1q6.484,0,6.489,5.87a5.855,5.855,0,0,1-1.8,4.48,6.771,6.771,0,0,1-4.824,1.69h-3.252Zm1.436-10.765v9.49h1.834a5.259,5.259,0,0,0,3.757-1.268,4.7,4.7,0,0,0,1.347-3.592q0-4.625-5.017-4.627h-1.916Zm17.358,10.765H217V20.885h6.231V22.16h-4.8v4.007h4.437v1.268h-4.437V31.65h5.067v1.275Zm1.787-.487V30.776a3.35,3.35,0,0,0,.7.451,5.757,5.757,0,0,0,.856.34,8.241,8.241,0,0,0,.9.215,5.188,5.188,0,0,0,.838.075,3.34,3.34,0,0,0,1.984-.483,1.615,1.615,0,0,0,.652-1.386,1.593,1.593,0,0,0-.218-.849,2.468,2.468,0,0,0-.6-.659,5.946,5.946,0,0,0-.91-.573c-.355-.183-.731-.372-1.135-.573-.426-.211-.827-.43-1.2-.648a5.236,5.236,0,0,1-.967-.723,3.015,3.015,0,0,1-.645-.9,2.989,2.989,0,0,1,.133-2.6,3.115,3.115,0,0,1,.967-1,4.4,4.4,0,0,1,1.368-.587,6.346,6.346,0,0,1,1.561-.2,6.081,6.081,0,0,1,2.646.43v1.586a4.855,4.855,0,0,0-2.79-.738,4.94,4.94,0,0,0-.942.093,2.847,2.847,0,0,0-.838.315,1.876,1.876,0,0,0-.6.562,1.446,1.446,0,0,0-.233.842,1.7,1.7,0,0,0,.175.8,1.955,1.955,0,0,0,.516.612,5.435,5.435,0,0,0,.834.537c.326.175.709.362,1.135.569s.856.437,1.25.673a5.7,5.7,0,0,1,1.035.777,3.516,3.516,0,0,1,.709.949,2.609,2.609,0,0,1,.261,1.193,2.982,2.982,0,0,1-.355,1.508,2.86,2.86,0,0,1-.96,1,4.222,4.222,0,0,1-1.389.559,7.779,7.779,0,0,1-1.662.172,6.572,6.572,0,0,1-.72-.047c-.283-.032-.577-.075-.874-.136a7.219,7.219,0,0,1-.842-.218,2.709,2.709,0,0,1-.641-.29ZM149.9,48.979V36.94h3.492a3.9,3.9,0,0,1,2.525.763,2.462,2.462,0,0,1,.935,1.991,2.925,2.925,0,0,1-.566,1.78,3.038,3.038,0,0,1-1.558,1.074v.036a3.154,3.154,0,0,1,1.988.917,2.8,2.8,0,0,1,.745,2.02,3.137,3.137,0,0,1-1.132,2.5,4.279,4.279,0,0,1-2.851.956H149.9Zm1.436-10.765V42.1h1.472a2.848,2.848,0,0,0,1.859-.559,1.926,1.926,0,0,0,.677-1.576c0-1.167-.8-1.755-2.356-1.755h-1.651Zm0,5.153V47.7h1.952a2.982,2.982,0,0,0,1.966-.587,2,2,0,0,0,.7-1.612c0-1.422-1-2.134-2.962-2.134h-1.651Zm18.11,5.608h-1.594l-1.3-3.377h-5.207l-1.225,3.377h-1.6l4.706-12.04h1.49l4.724,12.04Zm-3.366-4.645L164.156,39.2a4.992,4.992,0,0,1-.186-.806h-.036a4.856,4.856,0,0,1-.193.806l-1.912,5.128Zm13.97,4.645h-1.712L176.282,45.6a7.04,7.04,0,0,0-.548-.8,2.942,2.942,0,0,0-.544-.537,2.037,2.037,0,0,0-.6-.308,2.54,2.54,0,0,0-.723-.1h-1.182v5.125h-1.436V36.936h3.664a5.546,5.546,0,0,1,1.486.2,3.289,3.289,0,0,1,1.182.6,2.8,2.8,0,0,1,.784,1,3.248,3.248,0,0,1,.283,1.407,3.336,3.336,0,0,1-.193,1.157,2.893,2.893,0,0,1-.548.931,3.22,3.22,0,0,1-.856.7,4.47,4.47,0,0,1-1.128.448v.032a2.543,2.543,0,0,1,.537.3,3.262,3.262,0,0,1,.43.408,5.092,5.092,0,0,1,.412.534c.125.193.283.426.444.691l2.306,3.621Zm-7.363-10.765v4.365h1.952a3.119,3.119,0,0,0,1-.161,2.263,2.263,0,0,0,.791-.458,2.05,2.05,0,0,0,.523-.731,2.4,2.4,0,0,0,.186-.967,1.868,1.868,0,0,0-.637-1.508,2.791,2.791,0,0,0-1.844-.541h-1.97Zm8.473,10.274V46.824a3.409,3.409,0,0,0,.7.455,5.533,5.533,0,0,0,.856.34,7.866,7.866,0,0,0,.9.215,5.187,5.187,0,0,0,.838.075,3.378,3.378,0,0,0,1.984-.483,1.634,1.634,0,0,0,.655-1.389,1.593,1.593,0,0,0-.218-.849,2.479,2.479,0,0,0-.6-.659,6.348,6.348,0,0,0-.91-.573c-.355-.179-.734-.372-1.139-.573-.426-.211-.827-.43-1.2-.648a5.119,5.119,0,0,1-.967-.723,2.98,2.98,0,0,1-.645-.9,2.8,2.8,0,0,1-.236-1.171,2.7,2.7,0,0,1,.369-1.432,3.115,3.115,0,0,1,.967-1,4.479,4.479,0,0,1,1.368-.587,6.652,6.652,0,0,1,1.558-.193,6.081,6.081,0,0,1,2.646.43v1.586a4.89,4.89,0,0,0-2.79-.738,4.7,4.7,0,0,0-.945.093,2.886,2.886,0,0,0-.838.315,1.885,1.885,0,0,0-.6.566,1.469,1.469,0,0,0-.233.838,1.764,1.764,0,0,0,.175.8,1.978,1.978,0,0,0,.516.612,5.342,5.342,0,0,0,.834.537c.326.175.709.365,1.132.569.444.215.863.444,1.25.673a5.715,5.715,0,0,1,1.035.781,3.5,3.5,0,0,1,.705.949,2.682,2.682,0,0,1,.261,1.193,3.038,3.038,0,0,1-.355,1.508,2.923,2.923,0,0,1-.96,1A4.254,4.254,0,0,1,185.89,49a8.213,8.213,0,0,1-1.662.172c-.193,0-.44-.021-.72-.047a8.129,8.129,0,0,1-.874-.136,7.219,7.219,0,0,1-.842-.218,2.635,2.635,0,0,1-.641-.29Zm19.388.487h-1.594l-1.3-3.377h-5.2l-1.225,3.377h-1.6l4.709-12.04h1.49Zm-3.366-4.645L195.255,39.2a5,5,0,0,1-.186-.806h-.036a4.473,4.473,0,0,1-.2.806l-1.912,5.128h4.254Zm15.066,4.645h-1.766l-6.314-9.6a3.87,3.87,0,0,1-.394-.752h-.05a12.8,12.8,0,0,1,.068,1.654v8.7h-1.436V36.936h1.866l6.145,9.443c.258.39.423.659.5.806h.036a11.916,11.916,0,0,1-.086-1.769v-8.48h1.44v12.04Zm12.194-4.87c0,3.352-1.554,5.071-4.666,5.071q-4.464,0-4.466-4.878V36.932h1.436V44.2c0,2.453,1.064,3.7,3.184,3.7q3.073,0,3.073-3.578v-7.4h1.44V44.1Zm9.429,4.87h-6.364V36.932h1.436V47.694h4.928v1.278Zm8.115-10.765h-4.8v4.161h4.437V43.64H237.19v5.332h-1.436V36.932h6.231v1.275Zm7.277,10.962a5.417,5.417,0,0,1-4.179-1.687,6.194,6.194,0,0,1-1.572-4.39,6.571,6.571,0,0,1,1.6-4.634,5.664,5.664,0,0,1,4.358-1.73,5.333,5.333,0,0,1,4.093,1.68,6.242,6.242,0,0,1,1.554,4.394,6.582,6.582,0,0,1-1.59,4.659,5.547,5.547,0,0,1-4.262,1.712Zm.1-11.162a4,4,0,0,0-3.141,1.364,5.25,5.25,0,0,0-1.207,3.592,5.269,5.269,0,0,0,1.178,3.581,3.879,3.879,0,0,0,3.069,1.357,4.079,4.079,0,0,0,3.184-1.293,5.248,5.248,0,0,0,1.164-3.621,5.451,5.451,0,0,0-1.128-3.685A3.9,3.9,0,0,0,249.37,38Z" transform="translate(0 0)"/></svg>