<svg xmlns="http://www.w3.org/2000/svg" width="445.065" height="294.827" viewBox="0 0 445.065 294.827"><defs><style>.a{opacity:0.156;}.b{fill:#0070ff;}.c{fill:#2f2e41;}.d{fill:#006eff;}.e{fill:#2f2e43;}.f{fill:#3f3d56;}.g{fill:#fff;}.h{fill:#0072ff;}.i{fill:#00ffe1;}.j{fill:#00ffe2;}.k{fill:#e6e6e6;}.l{fill:#00ffe0;}</style></defs><g transform="translate(-1241.543 -595.431)"><g transform="translate(1241.543 595.431)"><g class="a" transform="translate(235.123 23.185)"><g transform="translate(0)"><path class="b" d="M4.933,0A4.3,4.3,0,0,0,.648,4.02L.009,13.765A4.3,4.3,0,0,0,4.02,18.338l76.348,5a9.184,9.184,0,0,0,1.2-18.329L5.22.009Q5.076,0,4.933,0Z" transform="matrix(-0.695, 0.719, -0.719, -0.695, 108.674, 76.714)"/><path class="c" d="M4.843,0a4.306,4.306,0,0,0-4.3,4.141L0,18.7A4.3,4.3,0,0,0,4.14,23.154L66.923,25.5a4.3,4.3,0,0,0,4.458-4.137l.544-14.555A4.3,4.3,0,0,0,67.789,2.35L5.006,0C4.951,0,4.9,0,4.843,0Z" transform="matrix(-0.719, 0.695, -0.695, -0.719, 102.09, 86.628)"/><path class="c" d="M927.007,717.791h9.766a4.306,4.306,0,0,0,4.3-4.3V632.1a4.306,4.306,0,0,0-4.3-4.3h-9.766a4.306,4.306,0,0,0-4.3,4.3v81.394A4.306,4.306,0,0,0,927.007,717.791Z" transform="translate(-887.91 -459.217)"/><path class="c" d="M897.815,717.791h9.766a4.306,4.306,0,0,0,4.3-4.3V632.1a4.306,4.306,0,0,0-4.3-4.3h-9.766a4.306,4.306,0,0,0-4.3,4.3v81.394A4.306,4.306,0,0,0,897.815,717.791Z" transform="translate(-839.402 -459.217)"/><circle class="d" cx="33.745" cy="33.745" r="33.745" transform="translate(20.185 16.145)"/><path class="c" d="M893.375,459.789a8,8,0,0,0,3.326-.648,5.382,5.382,0,0,0,2.9-3.5,3.621,3.621,0,0,0-.593-3.163,4.682,4.682,0,0,0-4.193-1.531l4.432-12.406L898,438.1l-5.21,14.584,1.175-.267c1.362-.308,3.128-.24,4,.878a2.325,2.325,0,0,1,.353,2.031,4.067,4.067,0,0,1-2.158,2.608c-1.842.832-4,.536-6.42.1l-.236,1.3A21.811,21.811,0,0,0,893.375,459.789Z" transform="translate(-824.601 -395.036)"/><rect class="c" width="7.127" height="1.323" transform="matrix(-0.875, -0.485, 0.485, -0.875, 86.904, 49.632)"/><rect class="c" width="7.127" height="1.323" transform="matrix(-0.999, -0.035, 0.035, -0.999, 65.63, 43.485)"/><path class="c" d="M875.258,614.859h56.9a5.631,5.631,0,0,0,5.624-5.624l-11.913-91.352a5.617,5.617,0,0,0-5.621-5.581H900.058a30.458,30.458,0,0,0-30.424,30.423v66.511A5.631,5.631,0,0,0,875.258,614.859Z" transform="translate(-849.506 -420.141)"/><path class="b" d="M3.28,20.278c-1.505,0-2.751-1.529-2.849-3.49L.006,8.328C-.1,6.27,1.1,4.493,2.673,4.358L53.438.017C56.8-.27,59.711,3.058,59.931,7.452s-2.329,8.189-5.694,8.477L3.471,20.27Q3.375,20.278,3.28,20.278Z" transform="translate(0 162.451) rotate(-60)"/><path class="c" d="M10.291,0A3.989,3.989,0,0,0,6.658,2.276L.348,15.909a3.81,3.81,0,0,0,2,5.092L55.328,44.036A4.026,4.026,0,0,0,60.582,42.1l6.31-13.633a3.806,3.806,0,0,0-2-5.092L11.912.337A4.064,4.064,0,0,0,10.291,0Z" transform="translate(5.331 163.359) rotate(-87)"/><path class="c" d="M904.513,401.749c5.494-2.024,10.011,3.308,14.989,4.529,4.763,1.168,9.894-1.58,12.438-5.584,2.968-4.672,2.233-10.738-.467-15.35-2.957-5.051-8.223-8.151-13.8-9.5-6.4-1.552-13.062-.789-19.376.787a80.627,80.627,0,0,0-17.5,6.3c-5.035,2.606-9.808,6.171-12.751,11.109-2.674,4.487-4,10.073-2.674,15.214a16.017,16.017,0,0,0,4.066,7.031c1.993,2.11,4.277,3.939,6.135,6.177,2.81,3.384,4.7,8.93,1.928,12.932a6.48,6.48,0,0,1-2.35,2.082c-1.132.589-2.136-1.123-1-1.714,1.993-1.038,2.716-3.144,2.663-5.292a10.767,10.767,0,0,0-2.643-6.6c-1.947-2.339-4.353-4.233-6.409-6.469a17.879,17.879,0,0,1-4.243-7.385c-1.461-5.353-.318-11.183,2.267-16.006,2.8-5.219,7.487-9.16,12.591-12.024a78.143,78.143,0,0,1,17.856-6.864c6.576-1.78,13.482-2.782,20.249-1.55,5.866,1.068,11.6,3.9,15.289,8.691,3.444,4.473,5.088,10.569,3.423,16.073a14.713,14.713,0,0,1-11.047,9.96,12.639,12.639,0,0,1-7.685-1c-2.578-1.155-4.92-2.952-7.663-3.72a5.916,5.916,0,0,0-3.758.1C903.84,404.105,903.323,402.188,904.513,401.749Z" transform="translate(-843.096 -373.017)"/></g><circle class="e" cx="2.118" cy="2.118" r="2.118" transform="translate(59.008 44.476)"/><circle class="e" cx="2.118" cy="2.118" r="2.118" transform="translate(78.776 48.712)"/><path class="e" d="M2396.77,345.664a43.751,43.751,0,0,1-6.6-1.652,79.336,79.336,0,0,1-7.524-3.1s2.493,4.674,7.019,5.716S2396.77,345.664,2396.77,345.664Z" transform="translate(-2328.583 -274.614)"/></g><g transform="translate(259.307 1.693)"><path class="b" d="M807.91,549.128a4.658,4.658,0,0,1-4.641-4.354l-.691-10.555a4.658,4.658,0,0,1,4.344-4.953l82.694-5.416a9.947,9.947,0,0,1,1.3,19.852l-82.694,5.415Q808.065,549.128,807.91,549.128Z" transform="translate(-775.024 -415.748)"/><path class="c" d="M830.7,550.108a4.664,4.664,0,0,1-4.653-4.485l-.589-15.765a4.658,4.658,0,0,1,4.481-4.829l68-2.542a4.659,4.659,0,0,1,4.829,4.481l.589,15.765a4.658,4.658,0,0,1-4.481,4.829l-68,2.542C830.818,550.107,830.759,550.108,830.7,550.108Z" transform="translate(-781.509 -415.366)"/><path class="c" d="M937.942,725.272H927.365a4.664,4.664,0,0,1-4.658-4.658V632.454a4.664,4.664,0,0,1,4.658-4.658h10.578a4.664,4.664,0,0,1,4.658,4.658v88.159A4.663,4.663,0,0,1,937.942,725.272Z" transform="translate(-809.064 -445.205)"/><path class="c" d="M908.75,725.272H898.173a4.664,4.664,0,0,1-4.658-4.658V632.454a4.664,4.664,0,0,1,4.658-4.658H908.75a4.664,4.664,0,0,1,4.658,4.658v88.159A4.664,4.664,0,0,1,908.75,725.272Z" transform="translate(-800.792 -445.205)"/><circle class="d" cx="36.55" cy="36.55" r="36.55" transform="translate(76.264 17.487)"/><path class="c" d="M896.391,461.592a8.668,8.668,0,0,1-3.6-.7,5.829,5.829,0,0,1-3.139-3.787,3.922,3.922,0,0,1,.643-3.426,5.071,5.071,0,0,1,4.542-1.658l-4.8-13.437,1.35-.482,5.643,15.8-1.272-.289c-1.475-.334-3.388-.26-4.332.951a2.518,2.518,0,0,0-.382,2.2,4.4,4.4,0,0,0,2.337,2.825c1.995.9,4.33.58,6.954.1l.255,1.41A23.621,23.621,0,0,1,896.391,461.592Z" transform="translate(-799.655 -391.457)"/><rect class="c" width="7.72" height="1.433" transform="translate(76.202 51.352) rotate(-11.864)"/><rect class="c" width="7.72" height="1.433" transform="translate(100.048 46.341) rotate(-11.864)"/><path class="f" d="M765.542,554.947l41.2,22.631a1.962,1.962,0,0,0,2.885-.851l10.093-21.1a2.633,2.633,0,0,0-1.35-3.162l-34.207-17.632a2,2,0,0,0-2.617.5l-17.087,16.1a2.537,2.537,0,0,0,.971,3.454Q765.485,554.919,765.542,554.947Z" transform="translate(-764.134 -418.785)"/><path class="g" d="M631.62,416.751l38.625,22.078L680.523,420.3l-33.135-18.019Z" transform="translate(-627.464 -283.707)"/><path class="c" d="M937.359,623.383H875.726a6.1,6.1,0,0,1-6.092-6.092l12.9-98.945a6.084,6.084,0,0,1,6.089-6.045H910.5a32.99,32.99,0,0,1,32.952,32.952v72.039A6.1,6.1,0,0,1,937.359,623.383Z" transform="translate(-794.026 -412.481)"/><path class="b" d="M826.28,588.562a4.665,4.665,0,0,1-4.257-2.752l-4.329-9.651A4.658,4.658,0,0,1,820.037,570l75.611-33.919a9.947,9.947,0,0,1,8.143,18.151l-75.611,33.92a4.632,4.632,0,0,1-1.9.408Z" transform="translate(-779.194 -418.972)"/><path class="c" d="M855.843,581.49a4.665,4.665,0,0,1-4.257-2.752l-7.4-16.485a4.664,4.664,0,0,1,2.344-6.157l62.088-27.852a4.658,4.658,0,0,1,6.157,2.344l7.395,16.484a4.658,4.658,0,0,1-2.344,6.157l-62.088,27.853A4.639,4.639,0,0,1,855.843,581.49Z" transform="translate(-786.702 -416.882)"/><path class="c" d="M896.815,404.137c-5.951-2.192-10.843,3.583-16.235,4.905-5.159,1.265-10.717-1.711-13.472-6.048-3.215-5.06-2.418-11.63.506-16.626,3.2-5.471,8.907-8.828,14.952-10.295,6.929-1.681,14.148-.854,20.986.853A87.332,87.332,0,0,1,922.5,383.75c5.453,2.823,10.623,6.684,13.81,12.032,2.9,4.86,4.33,10.91,2.9,16.479a17.347,17.347,0,0,1-4.4,7.615c-2.159,2.285-4.632,4.266-6.645,6.69-3.044,3.665-5.089,9.672-2.088,14.007a7.017,7.017,0,0,0,2.545,2.255c1.226.638,2.314-1.216,1.085-1.856-2.158-1.124-2.942-3.406-2.884-5.732a11.662,11.662,0,0,1,2.862-7.154c2.109-2.534,4.715-4.585,6.941-7.007a19.368,19.368,0,0,0,4.6-8c1.582-5.8.345-12.113-2.456-17.337-3.03-5.653-8.11-9.921-13.638-13.023a84.635,84.635,0,0,0-19.34-7.435c-7.123-1.928-14.6-3.013-21.932-1.679-6.354,1.157-12.563,4.224-16.559,9.414-3.73,4.844-5.511,11.447-3.708,17.409a15.936,15.936,0,0,0,11.966,10.787,13.689,13.689,0,0,0,8.323-1.086c2.793-1.251,5.33-3.2,8.3-4.029a6.408,6.408,0,0,1,4.071.108C897.544,406.689,898.1,404.612,896.815,404.137Z" transform="translate(-792.111 -373.017)"/><path class="e" d="M0,21.776H1.991L1,23.9Zm0,0V0H1.991V21.776Z" transform="matrix(0.839, 0.545, -0.545, 0.839, 40.869, 109.459)"/><rect class="h" width="10.454" height="3.983" rx="1.991" transform="translate(32.034 116.386)"/></g><g transform="translate(0 0)"><path class="i" d="M625.125,515.687l-.725,8.526a3.773,3.773,0,0,1-4.074,3.435L549.263,521.6a3.773,3.773,0,0,1-3.436-4.074l.725-8.526a3.773,3.773,0,0,1,4.074-3.436l71.063,6.046a3.773,3.773,0,0,1,3.435,4.074Z" transform="translate(-354.696 -351.288)"/><path class="j" d="M685.471,561.78l-7.871,3.358c-1.911.815-3.878.513-4.385-.674l-17.384-40.745c-.507-1.187.636-2.816,2.548-3.632l7.871-3.358c1.911-.815,3.878-.513,4.385.674l17.384,40.745C688.526,559.336,687.383,560.965,685.471,561.78Z" transform="translate(-400.878 -355.792)"/><path class="k" d="M459.094,526.61H325.812a55.038,55.038,0,1,0-34.85,43.9v53.5a4.638,4.638,0,0,0,4.638,4.638H459.094a4.638,4.638,0,0,0,4.638-4.638V531.249A4.638,4.638,0,0,0,459.094,526.61Z" transform="translate(-216.168 -333.822)"/><path class="f" d="M529.886,652.2H366.391a5.224,5.224,0,0,1-5.218-5.218V554.216A5.224,5.224,0,0,1,366.391,549H529.886a5.224,5.224,0,0,1,5.218,5.218v92.763a5.224,5.224,0,0,1-5.218,5.218ZM366.391,550.157a4.063,4.063,0,0,0-4.058,4.058v92.763a4.063,4.063,0,0,0,4.058,4.058H529.886a4.063,4.063,0,0,0,4.058-4.058V554.216a4.063,4.063,0,0,0-4.058-4.058Z" transform="translate(-277.104 -369.545)"/><path class="i" d="M595.125,526.687l-.725,8.526a3.773,3.773,0,0,1-4.074,3.435L519.263,532.6a3.773,3.773,0,0,1-3.435-4.074l.725-8.526a3.773,3.773,0,0,1,4.074-3.436l71.063,6.046a3.773,3.773,0,0,1,3.435,4.074Z" transform="translate(-342.089 -355.91)"/><path class="i" d="M655.471,572.78l-7.871,3.358c-1.911.815-3.878.513-4.385-.674l-17.384-40.745c-.506-1.187.637-2.816,2.548-3.632l7.871-3.358c1.911-.815,3.878-.513,4.385.674l17.384,40.745C658.526,570.336,657.383,571.965,655.471,572.78Z" transform="translate(-388.271 -360.414)"/><rect class="f" width="444.483" height="1.16" transform="translate(0.582 281.493)"/><path class="f" d="M283.831,548.314a55.658,55.658,0,1,1,55.658-55.658A55.658,55.658,0,0,1,283.831,548.314Zm0-110.156a54.5,54.5,0,1,0,54.5,54.5A54.5,54.5,0,0,0,283.831,438.157Z" transform="translate(-221.213 -322.479)"/><circle class="l" cx="31.029" cy="31.029" r="31.029" transform="translate(152.425 25.52)"/><path class="c" d="M540.446,342.537l-.032-1.16c2.157-.06,4.059-.2,5.488-1.239a3.564,3.564,0,0,0,1.381-2.625,2.038,2.038,0,0,0-.668-1.678c-.949-.8-2.475-.542-3.588-.032l-.959.44,1.84-13.445,1.149.157-1.565,11.437a4.093,4.093,0,0,1,3.872.557,3.172,3.172,0,0,1,1.079,2.6,4.715,4.715,0,0,1-1.855,3.521C544.75,342.416,542.364,342.483,540.446,342.537Z" transform="translate(-352.426 -274.488)"/><rect class="c" width="6.245" height="1.16" transform="translate(198.311 49.453)"/><rect class="c" width="6.245" height="1.16" transform="translate(178.599 49.453)"/><path class="c" d="M554.333,487.623H481.282a2.612,2.612,0,0,1-2.609-2.609V426.329A26.862,26.862,0,0,1,505.5,399.5h23.9a2.612,2.612,0,0,1,2.609,2.565l24.93,82.908v.042A2.612,2.612,0,0,1,554.333,487.623Z" transform="translate(-326.481 -306.72)"/><path class="i" d="M522.316,440.453l8.557.067a3.773,3.773,0,0,1,3.739,3.8l-.56,71.317a3.773,3.773,0,0,1-3.8,3.739l-8.557-.067a3.773,3.773,0,0,1-3.739-3.8l.56-71.317A3.773,3.773,0,0,1,522.316,440.453Z" transform="translate(-342.99 -323.93)"/><path class="c" d="M510.673,426.253a12.755,12.755,0,1,1,25.51,0v28.409h-25.51Z" transform="translate(-339.928 -312.603)"/><path class="c" d="M456.229,281.407c2.939-3.024,7.208-3.544,11.226-3.215,4.3.352,8.379,1.782,12.6,2.576,4.163.784,8.676,1.135,12.654-.6a11.648,11.648,0,0,0,6.8-9.264,16.834,16.834,0,0,0-3.048-11.873c-2.725-3.85-6.6-6.671-10.62-9.038-8.674-5.1-18.346-9.568-28.5-10.394-9.163-.745-18.879,1.787-25.325,8.63-6.042,6.415-8.614,15.367-9.149,23.989-.683,11,1.885,21.87,2.815,32.781.723,8.49.452,18.682-6.442,24.779-6.1,5.393-15.385,5.328-22.575,2.382-8.546-3.5-14.543-11.362-19.079-19.088-1.155-1.967-2.24-3.973-3.293-6-.517-.993-2.018-.115-1.5.878,4.245,8.157,9.182,16.306,16.607,21.958,6.492,4.942,15.154,7.323,23.178,5.234a18.7,18.7,0,0,0,9.913-6.264,24.24,24.24,0,0,0,4.8-11.956,58.091,58.091,0,0,0-.047-13.891c-.562-5.564-1.458-11.088-2.072-16.646-1.045-9.466-1.189-19.29,2.551-28.234a28.149,28.149,0,0,1,7.323-10.424,26.794,26.794,0,0,1,12.225-5.829c9.832-2.04,19.828.722,28.728,4.885a80.833,80.833,0,0,1,12.846,7.208c3.593,2.572,6.939,5.94,8.324,10.235,1.193,3.7,1.094,8.083-1.285,11.31-2.542,3.449-6.946,4.31-10.985,4.1-8.295-.426-16.653-5.247-25-2.5a12.026,12.026,0,0,0-4.9,3.031c-.781.8.448,2.034,1.23,1.23Z" transform="translate(-281.941 -239.472)"/></g></g></g></svg>